<svg xmlns="http://www.w3.org/2000/svg" xmlns:xlink="http://www.w3.org/1999/xlink" version="1.1" id="Layer_1" x="0px" y="0px" viewBox="0 0 120.2 67.7" style="enable-background:new 0 0 120.2 67.7;" xml:space="preserve">
<style type="text/css">
	.st0{fill:#FFFFFF;}
</style>
<path d="M106.5,13.6h-23c-0.5,7.2-0.9,14.1-1.4,21.1c2.1,0.7,3.5,1.1,5.6-0.5c4.1-3.1,11.3-4.7,15.5,0.2c4.1,4.8,1.6,13.4-4.4,15  c-4.6,1.3-10.3,0.9-13.1-4.7c-1.5-2.9-3.3-0.3-5.1-0.1c2,5.6,5.8,8.7,11.4,9.4c7.8,1,12.7-1.2,16.8-7.7c4.3-6.8-0.2-16.8-8.2-18.8  c-5.3-1.3-5.5-1.2-13.8,3.1c0.2-4.3,0.4-8.4,0.6-12.6c5,0,9.9,0,14.7,0c2.9,0,6.1,0.7,5.6-4.1c8.3,5.8,14.9,14.9,11.4,25.2  c-1.8,5.4-5.6,9.7-10.1,13.2c-9.5,7.3-20.6,10.6-32.2,12.7c-16.7,3-33,1.5-49-3.9c-6.4-2.1-12.5-4.9-17.6-9.4  c-5-4.4-9.5-9.4-10.2-16.6c-0.6-6.1,2-11,5.7-15.5c8.2-9.6,19.5-13.9,31.3-16.5c8-1.7,16.3-2.7,24.5-2.7c14.1,0,27.7,3.1,40.4,9.4  c1.6,0.8,3.1,1.9,4.7,2.9C106.6,13.3,106.6,13.5,106.5,13.6L106.5,13.6z M34.5,34.4c-1.2,3.8-2,7.7-3.7,11.2  C28,51,18.4,51.9,15.3,47.1c-1.9-3-3.4-1.8-5.3-0.8c3.2,9.4,13.7,9.6,20.3,6c5-2.7,7.2-8,7.9-13.5c0.5-3.9,0.7-8-0.1-11.8  c-0.7-3.4-2.2-7-4.4-9.6c-4-4.6-9.6-5-15.2-3.5c-6.9,1.8-11.2,9.3-9,17.2c1.1,4,8.7,10,14.9,8.2C27.6,38.3,30.6,36.3,34.5,34.4  L34.5,34.4z M49.5,26.2c1.2-2.2,2.1-4.2,3.3-5.9c2.4-3.4,5.9-3.6,9.5-2.8c3.1,0.7,5.4,2.7,6.1,5.8c1,4.3-0.7,7.9-3.8,10.6  c-5.5,4.7-11.2,9.2-17,13.5c-2.4,1.7-2.6,3.6-2,6.2c9,0,18,0,27,0c1.9,0,1.4-1.5,1.5-2.5c0.1-1.3-0.4-2-1.8-2c-4,0-8,0-12,0  c-2.5,0-4.9,0-8.1,0c0.9-0.8,1.2-1,1.4-1.2c5.6-4.7,11.4-9.2,16.8-14.1c5.8-5.4,4.1-13.7-1.3-17.8c-7.5-5.7-21.4-3.9-23.6,8.9  C46.8,25.4,48.2,25.8,49.5,26.2L49.5,26.2z"/>
<path class="st0" d="M34.5,34.4c-3.9,1.9-6.9,3.9-10.3,4.9C18,41.1,10.4,35,9.3,31c-2.2-7.9,2.1-15.4,9-17.2  c5.6-1.5,11.3-1.2,15.2,3.5c2.2,2.6,3.8,6.2,4.4,9.6c0.8,3.8,0.6,7.9,0.1,11.8c-0.7,5.5-2.9,10.8-7.9,13.5c-6.6,3.6-17.1,3.4-20.3-6  c2-1,3.4-2.2,5.3,0.8c3.1,4.9,12.7,3.9,15.5-1.5C32.5,42,33.3,38.1,34.5,34.4L34.5,34.4z M32.8,26.6c0-5.7-3.6-9.1-9.3-9.3  c-6.1-0.2-9.4,4.2-9.7,9.7c-0.2,5.2,3.6,8.5,9.5,8.3C29.1,35.1,32.9,32.5,32.8,26.6L32.8,26.6z"/>
<path class="st0" d="M49.5,26.2c-1.2-0.4-2.6-0.8-4-1.2c2.2-12.8,16.1-14.6,23.6-8.9c5.3,4.1,7.1,12.4,1.3,17.8  c-5.3,5-11.2,9.5-16.8,14.1c-0.3,0.2-0.5,0.4-1.4,1.2c3.2,0,5.6,0,8.1,0c4,0,8,0,12,0c1.5,0,2,0.7,1.8,2c-0.1,1.1,0.4,2.5-1.5,2.5  c-9,0-17.9,0-27,0c-0.6-2.7-0.4-4.5,2-6.2c5.8-4.3,11.5-8.8,17-13.5c3.1-2.7,4.8-6.4,3.8-10.6c-0.7-3.2-3-5.2-6.1-5.8  c-3.6-0.8-7.1-0.5-9.5,2.8C51.6,22,50.7,24,49.5,26.2L49.5,26.2z"/>
<path d="M32.8,26.6c0.1,6-3.7,8.5-9.5,8.7c-6,0.2-9.7-3.1-9.5-8.3c0.2-5.5,3.6-9.9,9.7-9.7C29.2,17.5,32.8,20.9,32.8,26.6L32.8,26.6  z"/>
</svg>