<svg xmlns="http://www.w3.org/2000/svg" id="Layer_1" data-name="Layer 1" viewBox="0 0 67.33 67.8">
  <defs>
    <style>
      .cls-1, .cls-2 {
        stroke-width: 0px;
      }

      .cls-2 {
        fill: #fff;
      }
    </style>
  </defs>
  <path class="cls-1" d="m67.29,33.34c0,7.22.06,14.45-.06,21.67-.02,1.15-.57,2.5-1.32,3.39-2.33,2.76-4.78,5.42-7.37,7.93-.81.79-2.19,1.38-3.32,1.39-13.52.09-27.05.1-40.57,0-1.34,0-2.84-.63-3.99-1.39-1.93-1.26-3.46-3.18-5.47-4.25C.62,59.63-.1,55.88.01,51.07c.3-12.87.13-25.75.07-38.63,0-1.73.42-2.91,1.86-3.97C5.43,5.89,8.43,2.11,12.31.72c3.78-1.36,8.41-.38,12.67-.38,10.1-.02,20.19-.07,30.29.07,1.38.02,2.9.8,4.08,1.61,6.35,4.34,8.79,10.27,7.75,18-.59,4.37-.11,8.88-.11,13.32.1,0,.2,0,.3,0Zm-9.97-25.89l.09.09c-2.26.34-4.66.32-6.75,1.11-2.26.85-4.22,1.28-6.64.55-5.68-1.7-11.55-1.87-17.21-.16-2.73.82-4.78.65-7.28-.62-1.96-1-4.42-1.28-6.68-1.37-2.5-.09-3.81,1.53-3.26,3.97.49,2.22,1.74,4.26,2.28,6.47.48,1.96,1.19,4.35.51,6.02-1.59,3.9-1.57,7.49.06,11.23,0,0-.2.18-.2.18-.24.26-.74.64-.69.78,1.22,2.83,2.49,5.64,3.79,8.51-.97.56-2.13,1.23-3.29,1.91,7.85-1.64,13.68-1.66,16.01.28-2-.1-4-.21-6-.31,0,.31,0,.62,0,.93h6.15c.12.94.22,1.7.27,2.13-2.7.89-5.21,1.71-7.64,2.52,1.69,3.21,2.98,5.87,4.46,8.42,3.32,5.74,12.98,6.26,16.82.83,2.07-2.92,3.79-6.09,5.91-9.56-2.32-.68-4.55-1.34-6.78-2,.1-.32.21-.64.31-.96,3.74,1.17,7.48,2.33,11.19,3.49-.52-2.68-3-2.78-5.06-3.25-2.1-.49-4.28-.63-6.42-.93.04-.32.09-.65.13-.97,4.72.65,9.45,1.3,14.12,1.94-4.37-3.79-9.72-2.57-15.64-2.27,5.52-2.13,10.42-1.54,15.4-.91-1-.54-1.99-1.08-2.99-1.62,1.07-2.15,2.05-4.11,3.23-6.46-2.4,1.73-4.29,3.09-6.17,4.45-.16-.2-.32-.39-.48-.59.78-.65,1.52-1.34,2.34-1.93,5.45-3.96,6.58-7.6,5.16-14.12-.45-2.05.25-4.45.76-6.6.61-2.58,1.73-5.05,2.33-7.63.38-1.62-.08-3.18-2.15-3.54ZM20.97,49.7c0-.27-.02-.54-.03-.81-.69,0-1.51-.24-2.06.04-1.91.99-4.29,1.69-4.01,4.8,2.14-1.42,4.12-2.72,6.09-4.03Zm.08-2.99c-.08-.25-.17-.51-.25-.76-2.98.15-5.82.67-8.05,3.53,2.98-.99,5.64-1.88,8.3-2.77Z"/>
  <path class="cls-2" d="m12.44,34.75c-1.62-3.74-1.65-7.33-.06-11.23.68-1.67-.03-4.06-.51-6.02-.54-2.21-1.79-4.26-2.28-6.47-.54-2.45.76-4.06,3.26-3.97,2.26.08,4.72.37,6.68,1.37,2.5,1.27,4.55,1.44,7.28.62,5.66-1.7,11.53-1.54,17.21.16,2.42.73,4.38.3,6.64-.55,2.09-.79,4.49-.77,6.76-1.1-3.53,1.32-7.07,2.64-10.6,3.96l.29.74c2,.33,4.48.07,5.87,1.17,1.29,1.02,1.42,3.51,2,5.17,1.79-3.3,5.55-6.46,2.34-11.14,2.07.36,2.53,1.92,2.15,3.54-.6,2.58-1.72,5.05-2.33,7.63-.51,2.16-1.21,4.55-.76,6.6,1.42,6.51.29,10.15-5.16,14.12-.82.59-1.56,1.29-2.34,1.93.16.2.32.39.48.59,1.89-1.36,3.77-2.72,6.17-4.45-1.18,2.35-2.15,4.31-3.23,6.46.99.54,1.99,1.08,2.99,1.62-4.98-.63-9.88-1.23-15.4.91,5.91-.3,11.27-1.52,15.64,2.27-4.67-.64-9.4-1.29-14.12-1.94-.04.32-.09.65-.13.97,2.14.3,4.32.44,6.42.93,2.05.48,4.53.57,5.06,3.25-3.71-1.16-7.45-2.33-11.19-3.49-.1.32-.21.64-.31.96,2.23.66,4.46,1.31,6.78,2-2.13,3.47-3.84,6.64-5.91,9.56-3.85,5.43-13.5,4.92-16.82-.83-1.48-2.55-2.77-5.21-4.46-8.42,2.44-.8,4.95-1.63,7.64-2.52-.05-.43-.15-1.19-.27-2.13h-6.15c0-.31,0-.62,0-.93,2,.1,4,.21,6,.31-2.33-1.93-8.17-1.92-16.01-.28,1.16-.67,2.32-1.35,3.29-1.91-1.29-2.87-2.57-5.68-3.79-8.51-.06-.14.44-.51.69-.78,2.09,2.37,4.19,4.75,6.28,7.12.28-.27.57-.55.85-.82-2.31-2.16-4.62-4.32-6.93-6.48Zm26.14,5.57c-.18-2.2-.35-4.41-.54-6.68,1.27-.39,2.46-.75,3.96-1.21-1.06.98-1.8,1.66-2.47,2.27,1.22-.24,2.17-.53,3.15-.61,2.62-.21,4.94-.91,6.03-3.6.15-.38-.19-.96-.35-1.63q4.97-4.52,3.61-6.63c-.07,3.41-1.02,4.13-4.44,4.42-2.03.17-4,1.04-5.99,1.62-1.24.36-2.54.61-3.69,1.17-.64.31-1.54,1.23-1.46,1.72.54,3.13,1.32,6.21,2.03,9.31.25.75.49,1.5.72,2.21-3.33,1.09-6.51,1.26-9.98.07.64-1.46,1.55-2.86,1.85-4.38.49-2.52.63-5.11.82-7.69.03-.42-.37-1.18-.72-1.27-2.61-.71-5.22-1.47-7.88-1.88-2.71-.41-6.22.87-6.68-3.76.39,1.78,1.17,3.17,2.08,4.47.57.81,1.88,1.46,1.91,2.22.11,2.71,1.85,2.83,3.79,2.88l-.09-.06c1.95.1,3.9.19,6.72.33-.85,2.65-1.57,4.88-2.31,7.12-.33-1.87-1.14-3.46-3.23-3.53-3.09-.11-5.87-.69-7.79-3.49.98,3,3.42,3.57,6,4.03,1.04.19,2.31.52,2.93,1.25.55.65.33,1.94.47,3.1.59-.51,1.14-.98,1.69-1.44-.51,3.43-.21,3.82,4.67,6.13-.07,3.71-1.47,5.08-5.02,4.81-1.37-.1-2.74-.48-4.1-.46-.59,0-1.5.6-1.67,1.12-.15.45.43,1.6.87,1.71,1.85.44,2.25,1.81,2.77,3.34.66,1.96,2.76,2.73,4.16,1.38,2.8-2.7,5.55-2.35,8.52-.5,1.67,1.04,2.67.62,3.21-1.37.26-.93,1.11-1.73,1.78-2.52.7-.83,1.5-1.58,2.25-2.37-1.05-.24-2.09-.59-3.15-.67-.9-.07-1.83.27-2.74.29-3.35.05-4.86-1.32-5.44-4.84,5.99-2.73,6.41-3.44,3.76-6.35ZM14.42,18.93c.49-2,.36-5.18,1.73-6.08,1.67-1.09,4.6-.26,6.76-.26-2.17-1.33-4.59-3.17-7.3-4.33-1.26-.54-3.07.22-4.64.4.2,1.56.14,3.21.66,4.66.7,1.95,1.84,3.75,2.79,5.62Zm27.17,23.3c-1.05-2.78-.69-3.56,2.25-4.28,1.43-.35,2.94-.47,4.31-.99,1.19-.45,2.21-1.32,3.27-1.97-2.39.73-4.61,1.39-6.82,2.08-1.21.38-2.54.62-3.57,1.31-.58.39-.88,1.56-.83,2.35.03.53.9,1.01,1.39,1.51Z"/>
  <path class="cls-2" d="m20.97,49.7c-1.97,1.3-3.95,2.61-6.09,4.03-.28-3.11,2.1-3.81,4.01-4.8.55-.28,1.36-.04,2.06-.04,0,.27.02.54.03.81Z"/>
  <path class="cls-2" d="m21.04,46.71c-2.66.89-5.33,1.78-8.3,2.77,2.23-2.87,5.07-3.38,8.05-3.53.08.25.17.51.25.76Z"/>
  <path class="cls-1" d="m24.35,33.32c-1.94-.05-3.68-.17-3.79-2.88-.03-.76-1.34-1.41-1.91-2.22-.91-1.3-1.69-2.69-2.08-4.47.46,4.63,3.97,3.36,6.68,3.76,2.66.4,5.28,1.16,7.88,1.88.34.09.75.85.72,1.27-.19,2.57-.32,5.17-.82,7.69-.3,1.52-1.21,2.92-1.85,4.38,3.47,1.19,6.65,1.02,9.98-.07-.23-.71-.48-1.46-.72-2.21l.16-.13c2.64,2.91,2.22,3.62-3.76,6.35.58,3.51,2.09,4.89,5.44,4.84.92-.01,1.84-.35,2.74-.29,1.06.08,2.1.44,3.15.67-.75.79-1.55,1.54-2.25,2.37-.66.79-1.52,1.58-1.78,2.52-.55,2-1.54,2.41-3.21,1.37-2.97-1.85-5.72-2.19-8.52.5-1.4,1.35-3.5.58-4.16-1.38-.51-1.53-.91-2.89-2.77-3.34-.44-.1-1.02-1.26-.87-1.71.18-.52,1.08-1.11,1.67-1.12,1.36-.02,2.73.36,4.1.46,3.55.27,4.95-1.1,5.02-4.81-4.88-2.31-5.18-2.7-4.67-6.13l-.05.07c.72-2.23,1.44-4.46,2.29-7.11-2.81-.14-4.76-.23-6.72-.33,1.67-.29,3.21-1,3-2.91-.08-.74-1.34-1.82-2.16-1.91-1.12-.13-2.33.53-3.5.84.54,1.09,1.03,2.21,1.64,3.25.21.36.73.54,1.12.8Zm15.59,20.3c-2.37-.35-3.99-.83-5.58-.75-1.54.08-3.05.74-5.05,1.27,3.79,1.63,6.93,1.28,10.63-.52Z"/>
  <path class="cls-1" d="m38.43,40.45c-.7-3.1-1.49-6.18-2.03-9.31-.09-.49.81-1.41,1.46-1.72,1.15-.55,2.45-.81,3.69-1.17,1.99-.57,3.96-1.45,5.99-1.62,3.42-.29,4.36-1,4.44-4.42q1.36,2.12-3.61,6.63c.16.67.51,1.25.35,1.63-1.09,2.68-3.41,3.38-6.03,3.6-.97.08-1.93.37-3.15.61.67-.61,1.41-1.29,2.47-2.27-1.5.46-2.69.82-3.96,1.21.18,2.28.36,4.48.54,6.68,0,0-.16.13-.16.13Zm7.68-12.87c-1.67.87-3.13,1.57-4.51,2.41-.21.13-.14,1,.06,1.4.17.33.95.73,1.06.63.85-.73,1.65-1.55,2.38-2.41.32-.37.46-.9,1-2.03Z"/>
  <path class="cls-1" d="m57.33,7.45c3.21,4.68-.55,7.84-2.34,11.14-.58-1.67-.71-4.15-2-5.17-1.39-1.1-3.87-.84-5.87-1.17l-.29-.74c3.53-1.32,7.07-2.64,10.6-3.96,0,0-.09-.09-.09-.09Z"/>
  <path class="cls-1" d="m14.42,18.93c-.95-1.87-2.09-3.66-2.79-5.62-.52-1.45-.46-3.1-.66-4.66,1.56-.17,3.38-.94,4.64-.4,2.71,1.17,5.14,3,7.3,4.33-2.16,0-5.08-.83-6.76.26-1.37.89-1.24,4.08-1.73,6.08Z"/>
  <path class="cls-1" d="m28.73,40.62c-.55.47-1.09.94-1.69,1.44-.14-1.17.08-2.46-.47-3.1-.61-.73-1.88-1.06-2.93-1.25-2.59-.46-5.02-1.03-6-4.03,1.92,2.79,4.71,3.37,7.79,3.49,2.09.08,2.9,1.66,3.24,3.52,0,0,.06-.07.06-.07Z"/>
  <path class="cls-1" d="m41.6,42.23c-.49-.5-1.36-.98-1.39-1.51-.05-.79.26-1.97.83-2.35,1.02-.69,2.35-.92,3.57-1.31,2.21-.69,4.43-1.35,6.82-2.08-1.05.66-2.08,1.52-3.27,1.97-1.36.52-2.87.64-4.31.99-2.94.73-3.31,1.5-2.25,4.28Z"/>
  <path class="cls-1" d="m12.44,34.75c2.31,2.16,4.62,4.32,6.93,6.48-.28.27-.57.55-.85.82-2.09-2.37-4.19-4.75-6.28-7.12,0,0,.2-.18.2-.18Z"/>
  <path class="cls-2" d="m24.35,33.32c-.38-.26-.9-.44-1.12-.8-.61-1.04-1.1-2.16-1.64-3.25,1.17-.32,2.38-.98,3.5-.84.82.1,2.08,1.17,2.16,1.91.21,1.92-1.33,2.62-3,2.91,0,0,.1.07.1.07Z"/>
  <path class="cls-2" d="m39.94,53.62c-3.7,1.8-6.84,2.14-10.63.52,2-.53,3.51-1.19,5.05-1.27,1.59-.08,3.21.4,5.58.75Z"/>
  <path class="cls-2" d="m46.11,27.58c-.54,1.13-.68,1.66-1,2.03-.73.86-1.52,1.67-2.38,2.41-.11.1-.9-.31-1.06-.63-.2-.4-.27-1.27-.06-1.4,1.38-.84,2.84-1.54,4.51-2.41Z"/>
</svg>