<svg xmlns:xlink="http://www.w3.org/1999/xlink" xmlns="http://www.w3.org/2000/svg" xml:space="preserve" style="enable-background:new 0 0 595.3 841.9;" viewBox="0 0 595.3 841.9" y="0px" x="0px" id="Layer_1" version="1.1">
<style type="text/css">
	.st0{fill:none;}
	.st1{fill:#FFFFFF;}
</style>
<g>
	<path d="M301.5,206.5c0.3,0,0.6,0,0.8,0C302.1,206.5,301.8,206.5,301.5,206.5z" class="st0"/>
	<path d="M297.8,206.4c-3.3,0-6.5,0.2-9.5,0.5c3.1-0.3,6.4-0.5,9.9-0.5C298.1,206.4,298,206.4,297.8,206.4z" class="st0"/>
	<path d="M364.3,313.2v135.6L238.1,301.9h0c-5.9-8.2-8.6-18.2-7.6-28.2c3-29.7,15.9-62.3,57.9-66.8c3-0.3,6.2-0.5,9.5-0.5   c0.1,0,0.2,0,0.3,0c0.1,0,0.2,0,0.3,0c1.1,0,2.1,0.1,3.1,0.1c0.3,0,0.6,0,0.8,0c40.6,1.6,55,27.5,59.7,54.7c1.5,7.3,2.2,15,2.2,23   v6h60V263c0-30-10.9-55.9-33.3-79.3c-11-11-24.3-20-39.6-26.8c-15.1-6.7-32-10.1-50.4-10.1H171.2v405h58.2v-158l120.4,137   c2.9,4.2,8,9.3,9.9,14.5c3.1,8.4,4.6,17.3,4.6,26.8c-0.1,20.6-9.6,40.2-25.9,52.7c-2,1.5-3.8,2.8-5.5,3.6l0,0   c-9.1,4.7-21.1,7-36.5,7c-23.8,0-41.2-7.4-51.9-21.9c-8.5-11.6-13.4-24.6-14.6-38.8h-58.5V695l118.4-0.1c2.5,0.1,4.5,0.2,6.6,0.2   c24,0,44.5-3.9,60.8-11.6c16.2-7.6,29.4-18.2,39.3-31.4c9.6-12.9,16.6-28.9,21-47.7c4.5-19.3,6.8-40.6,6.8-63.2   c0-1.5,0.4-182.1,0.5-227.9H364.3z"/>
	<path d="M298.5,206.4c-0.1,0-0.2,0-0.3,0c1.1,0,2.2,0,3.4,0.1C300.5,206.4,299.5,206.4,298.5,206.4z" class="st1"/>
</g>
</svg>